<svg width="58" height="58" viewBox="0 0 58 58" fill="none" xmlns="http://www.w3.org/2000/svg">
<path d="M34.3998 36.1263C34.0864 39.3285 36.115 41.8742 39.3111 42.5272C42.5756 43.1944 45.9285 42.8661 49.4074 42.3648C45.1051 49.4346 36.1546 48.5872 28.0779 46.1985C29.3697 48.9369 31.7785 50.1607 34.7043 51.3809C27.1663 54.4225 18.4176 53.1506 12.3173 47.8023C10.9841 46.6338 9.44551 44.6055 9.80223 42.8786C10.4616 39.68 12.7767 37.3073 15.0792 35.1559C18.2104 38.6203 22.165 41.0161 27.0672 40.481C19.931 36.8792 16.6899 31.7896 13.2091 24.7572C10.5193 25.1997 8.68161 27.2227 7.73756 30.0003C6.69802 26.98 5.2333 23.3996 6.47643 20.028C8.85277 13.5861 15.3278 8.80516 22.3632 8.64282C20.2697 11.1957 18.6987 13.893 18.6753 17.1094C19.6806 22.7342 23.9468 26.9194 29.5427 28.1307C35.2718 26.8587 39.6101 22.4488 40.4407 16.6777C40.0624 13.6111 38.7039 11.1011 36.7312 8.70705C42.3108 9.85769 46.3446 13.6307 47.177 19.5891C48.7498 16.7098 49.0435 13.7931 49.375 10.3518C52.1747 13.6932 53.1242 17.6981 52.9872 22.0474C52.7891 28.2912 46.6833 35.4199 40.4137 35.3575L41.2929 32.562C41.4388 32.1 41.01 30.9886 40.6425 30.6764C40.2011 30.3017 38.7057 30.0966 38.1364 30.4106C36.1654 31.497 34.6323 33.8036 34.4053 36.121L34.3998 36.1263Z" fill="#A0A0A0"/>
<path d="M29.5318 23.0571L24.0207 14.0411L29.5318 5L35.0268 14.0286L29.5318 23.0571Z" fill="#A0A0A0"/>
</svg>
